<svg width="256" height="256" viewBox="0 0 256 256" fill="none" xmlns="http://www.w3.org/2000/svg">
<g clip-path="url(#clip0_5813_51)">
<rect width="256" height="256" rx="44" fill="#0A0E1A"/>
<g clip-path="url(#clip1_5813_51)">
<path d="M188.917 104.135C185.568 96.3122 180.75 89.2744 174.655 83.2352C168.537 77.1959 161.43 72.4644 153.481 69.1595C145.29 65.7357 136.57 64 127.584 64C118.599 64 109.902 65.7357 101.688 69.1595C93.7622 72.4644 86.6315 77.2197 80.5127 83.2352C74.3939 89.2744 69.6 96.2885 66.2516 104.135C62.7586 112.242 61 120.85 61 129.718C61 143.58 65.3121 156.847 73.5026 168.07C80.9222 178.199 91.2087 186.259 102.964 190.895C107.156 192.203 111.637 192.512 114.672 188.85C117.996 184.642 116.31 179.268 111.757 176.748C110.408 175.94 108.914 175.274 107.493 174.608C99.4472 170.97 92.4853 165.383 87.1374 158.393C81.0186 150 77.7906 140.108 77.7906 129.742C77.7906 119.376 82.9699 104.277 92.3649 95.0044C101.76 85.7317 114.262 80.6198 127.56 80.6198C140.858 80.6198 153.36 85.7317 162.755 95.0044C172.15 104.277 177.33 116.617 177.33 129.742C177.33 142.867 174.101 150.023 167.983 158.393C162.659 165.383 155.673 170.97 147.627 174.608C146.181 175.274 144.712 175.94 143.363 176.748C138.834 179.292 137.124 184.642 140.448 188.85C143.459 192.512 147.964 192.203 152.156 190.895C163.911 186.282 174.198 178.199 181.617 168.07C189.808 156.847 194.12 143.58 194.12 129.718C194.12 115.857 192.361 112.242 188.893 104.135H188.917Z" fill="white"/>
</g>
</g>
<defs>
<clipPath id="clip0_5813_51">
<rect width="256" height="256" fill="white"/>
</clipPath>
<clipPath id="clip1_5813_51">
<rect width="133.12" height="127.795" fill="white" transform="translate(61 64)"/>
</clipPath>
</defs>
</svg>
